<svg width="32" height="32" viewBox="0 0 32 32" fill="none" xmlns="http://www.w3.org/2000/svg">
<rect width="32" height="32" rx="16" fill="#3871E0"/>
<circle cx="16.0001" cy="15.9998" r="1.71271" fill="#FF6666"/>
<path d="M16 19.25C14.3125 19.25 13 17.9062 13 16.25V11.25C13 9.59375 14.3125 8.25 16 8.25C17.6562 8.25 19 9.59375 19 11.25V16.25C19 17.9375 17.6562 19.25 16 19.25ZM20.75 14.25C21.1562 14.25 21.5 14.5938 21.5 15V16.25C21.5 19.0312 19.4062 21.3438 16.75 21.7188V22.75H18C18.5625 22.75 19 23.25 18.9688 23.8125C18.9688 24.0625 18.75 24.25 18.5 24.25H13.5C13.2188 24.25 13 24.0625 13 23.8125C12.9688 23.25 13.4062 22.75 14 22.75H15.25V21.6562C12.4688 21.2812 10.5 18.7812 10.5 16V15C10.5 14.5938 10.8125 14.25 11.25 14.25C11.6562 14.25 12 14.5938 12 15V16.0938C12 18.1875 13.6562 20.125 15.7188 20.25C18.0625 20.4062 20 18.5625 20 16.25V15C20 14.5938 20.3125 14.25 20.75 14.25Z" fill="white"/>
</svg>
